<mxfile host="app.diagrams.net" agent="Mozilla/5.0 (Windows NT 10.0; Win64; x64) AppleWebKit/537.36 (KHTML, like Gecko) Chrome/130.0.0.0 Safari/537.36 Edg/130.0.0.0" version="24.8.6">
  <diagram id="C5RBs43oDa-KdzZeNtuy" name="Page-1">
    <mxGraphModel dx="1042" dy="531" grid="1" gridSize="10" guides="1" tooltips="1" connect="1" arrows="1" fold="1" page="1" pageScale="1" pageWidth="827" pageHeight="1169" math="0" shadow="0">
      <root>
        <mxCell id="WIyWlLk6GJQsqaUBKTNV-0" />
        <mxCell id="WIyWlLk6GJQsqaUBKTNV-1" parent="WIyWlLk6GJQsqaUBKTNV-0" />
        <mxCell id="t5h9_pTiGF1YicIOAXqB-93" value="Login/Forgot password" style="shape=table;startSize=30;container=1;collapsible=0;childLayout=tableLayout;fillColor=#d5e8d4;strokeColor=#82b366;" vertex="1" parent="WIyWlLk6GJQsqaUBKTNV-1">
          <mxGeometry x="30" y="40" width="640" height="520" as="geometry" />
        </mxCell>
        <mxCell id="t5h9_pTiGF1YicIOAXqB-94" value="" style="shape=tableRow;horizontal=0;startSize=140;swimlaneHead=0;swimlaneBody=0;strokeColor=#d79b00;top=0;left=0;bottom=0;right=0;collapsible=0;dropTarget=0;fillColor=#ffe6cc;points=[[0,0.5],[1,0.5]];portConstraint=eastwest;" vertex="1" parent="t5h9_pTiGF1YicIOAXqB-93">
          <mxGeometry y="30" width="640" height="65" as="geometry" />
        </mxCell>
        <mxCell id="t5h9_pTiGF1YicIOAXqB-95" value="Employee" style="shape=partialRectangle;html=1;whiteSpace=wrap;connectable=0;strokeColor=#d79b00;overflow=hidden;fillColor=#ffe6cc;top=0;left=0;bottom=0;right=0;pointerEvents=1;" vertex="1" parent="t5h9_pTiGF1YicIOAXqB-94">
          <mxGeometry x="140" width="250" height="65" as="geometry">
            <mxRectangle width="250" height="65" as="alternateBounds" />
          </mxGeometry>
        </mxCell>
        <mxCell id="t5h9_pTiGF1YicIOAXqB-96" value="Admin" style="shape=partialRectangle;html=1;whiteSpace=wrap;connectable=0;strokeColor=#d79b00;overflow=hidden;fillColor=#ffe6cc;top=0;left=0;bottom=0;right=0;pointerEvents=1;" vertex="1" parent="t5h9_pTiGF1YicIOAXqB-94">
          <mxGeometry x="390" width="250" height="65" as="geometry">
            <mxRectangle width="250" height="65" as="alternateBounds" />
          </mxGeometry>
        </mxCell>
        <mxCell id="t5h9_pTiGF1YicIOAXqB-97" value="" style="shape=tableRow;horizontal=0;startSize=140;swimlaneHead=0;swimlaneBody=0;strokeColor=inherit;top=0;left=0;bottom=0;right=0;collapsible=0;dropTarget=0;fillColor=none;points=[[0,0.5],[1,0.5]];portConstraint=eastwest;" vertex="1" parent="t5h9_pTiGF1YicIOAXqB-93">
          <mxGeometry y="95" width="640" height="425" as="geometry" />
        </mxCell>
        <mxCell id="t5h9_pTiGF1YicIOAXqB-98" value="" style="shape=partialRectangle;html=1;whiteSpace=wrap;connectable=0;strokeColor=inherit;overflow=hidden;fillColor=none;top=0;left=0;bottom=0;right=0;pointerEvents=1;" vertex="1" parent="t5h9_pTiGF1YicIOAXqB-97">
          <mxGeometry x="140" width="250" height="425" as="geometry">
            <mxRectangle width="250" height="425" as="alternateBounds" />
          </mxGeometry>
        </mxCell>
        <mxCell id="t5h9_pTiGF1YicIOAXqB-99" value="" style="shape=partialRectangle;html=1;whiteSpace=wrap;connectable=0;strokeColor=inherit;overflow=hidden;fillColor=none;top=0;left=0;bottom=0;right=0;pointerEvents=1;" vertex="1" parent="t5h9_pTiGF1YicIOAXqB-97">
          <mxGeometry x="390" width="250" height="425" as="geometry">
            <mxRectangle width="250" height="425" as="alternateBounds" />
          </mxGeometry>
        </mxCell>
        <mxCell id="t5h9_pTiGF1YicIOAXqB-103" style="edgeStyle=orthogonalEdgeStyle;rounded=0;orthogonalLoop=1;jettySize=auto;html=1;exitX=1;exitY=0.5;exitDx=0;exitDy=0;entryX=0;entryY=0.5;entryDx=0;entryDy=0;" edge="1" parent="WIyWlLk6GJQsqaUBKTNV-1" source="t5h9_pTiGF1YicIOAXqB-101" target="t5h9_pTiGF1YicIOAXqB-104">
          <mxGeometry relative="1" as="geometry">
            <mxPoint x="320" y="165" as="targetPoint" />
          </mxGeometry>
        </mxCell>
        <mxCell id="t5h9_pTiGF1YicIOAXqB-101" value="Forgot Reguest" style="ellipse;whiteSpace=wrap;html=1;" vertex="1" parent="WIyWlLk6GJQsqaUBKTNV-1">
          <mxGeometry x="250" y="227.5" width="70" height="50" as="geometry" />
        </mxCell>
        <mxCell id="t5h9_pTiGF1YicIOAXqB-111" style="edgeStyle=orthogonalEdgeStyle;rounded=0;orthogonalLoop=1;jettySize=auto;html=1;entryX=0.5;entryY=0;entryDx=0;entryDy=0;" edge="1" parent="WIyWlLk6GJQsqaUBKTNV-1" source="t5h9_pTiGF1YicIOAXqB-104" target="t5h9_pTiGF1YicIOAXqB-106">
          <mxGeometry relative="1" as="geometry" />
        </mxCell>
        <mxCell id="t5h9_pTiGF1YicIOAXqB-104" value="Get Request" style="rounded=0;whiteSpace=wrap;html=1;" vertex="1" parent="WIyWlLk6GJQsqaUBKTNV-1">
          <mxGeometry x="512" y="230" width="86" height="45" as="geometry" />
        </mxCell>
        <mxCell id="t5h9_pTiGF1YicIOAXqB-105" value="System" style="text;html=1;align=center;verticalAlign=middle;whiteSpace=wrap;rounded=0;" vertex="1" parent="WIyWlLk6GJQsqaUBKTNV-1">
          <mxGeometry x="70" y="90" width="60" height="30" as="geometry" />
        </mxCell>
        <mxCell id="t5h9_pTiGF1YicIOAXqB-108" style="edgeStyle=orthogonalEdgeStyle;rounded=0;orthogonalLoop=1;jettySize=auto;html=1;entryX=0.5;entryY=0;entryDx=0;entryDy=0;" edge="1" parent="WIyWlLk6GJQsqaUBKTNV-1" source="t5h9_pTiGF1YicIOAXqB-106" target="t5h9_pTiGF1YicIOAXqB-107">
          <mxGeometry relative="1" as="geometry">
            <Array as="points">
              <mxPoint x="555" y="315" />
              <mxPoint x="100" y="315" />
            </Array>
          </mxGeometry>
        </mxCell>
        <mxCell id="t5h9_pTiGF1YicIOAXqB-109" value="Yes" style="edgeLabel;html=1;align=center;verticalAlign=middle;resizable=0;points=[];" vertex="1" connectable="0" parent="t5h9_pTiGF1YicIOAXqB-108">
          <mxGeometry x="0.0767" y="-1" relative="1" as="geometry">
            <mxPoint as="offset" />
          </mxGeometry>
        </mxCell>
        <mxCell id="t5h9_pTiGF1YicIOAXqB-110" value="No" style="edgeStyle=orthogonalEdgeStyle;rounded=0;orthogonalLoop=1;jettySize=auto;html=1;entryX=1;entryY=0.5;entryDx=0;entryDy=0;" edge="1" parent="WIyWlLk6GJQsqaUBKTNV-1" source="t5h9_pTiGF1YicIOAXqB-106" target="t5h9_pTiGF1YicIOAXqB-107">
          <mxGeometry relative="1" as="geometry" />
        </mxCell>
        <mxCell id="t5h9_pTiGF1YicIOAXqB-106" value="Confirm" style="rhombus;whiteSpace=wrap;html=1;" vertex="1" parent="WIyWlLk6GJQsqaUBKTNV-1">
          <mxGeometry x="510" y="320" width="90" height="80" as="geometry" />
        </mxCell>
        <mxCell id="t5h9_pTiGF1YicIOAXqB-113" style="edgeStyle=orthogonalEdgeStyle;rounded=0;orthogonalLoop=1;jettySize=auto;html=1;" edge="1" parent="WIyWlLk6GJQsqaUBKTNV-1" source="t5h9_pTiGF1YicIOAXqB-107" target="t5h9_pTiGF1YicIOAXqB-112">
          <mxGeometry relative="1" as="geometry">
            <Array as="points">
              <mxPoint x="100" y="430" />
            </Array>
          </mxGeometry>
        </mxCell>
        <mxCell id="t5h9_pTiGF1YicIOAXqB-107" value="Save to database" style="rounded=0;whiteSpace=wrap;html=1;" vertex="1" parent="WIyWlLk6GJQsqaUBKTNV-1">
          <mxGeometry x="50" y="335" width="100" height="50" as="geometry" />
        </mxCell>
        <mxCell id="t5h9_pTiGF1YicIOAXqB-118" style="edgeStyle=orthogonalEdgeStyle;rounded=0;orthogonalLoop=1;jettySize=auto;html=1;" edge="1" parent="WIyWlLk6GJQsqaUBKTNV-1" source="t5h9_pTiGF1YicIOAXqB-112" target="t5h9_pTiGF1YicIOAXqB-116">
          <mxGeometry relative="1" as="geometry" />
        </mxCell>
        <mxCell id="t5h9_pTiGF1YicIOAXqB-112" value="Notificate" style="rounded=0;whiteSpace=wrap;html=1;" vertex="1" parent="WIyWlLk6GJQsqaUBKTNV-1">
          <mxGeometry x="225" y="400" width="120" height="60" as="geometry" />
        </mxCell>
        <mxCell id="t5h9_pTiGF1YicIOAXqB-116" value="End" style="ellipse;whiteSpace=wrap;html=1;" vertex="1" parent="WIyWlLk6GJQsqaUBKTNV-1">
          <mxGeometry x="250" y="490" width="70" height="30" as="geometry" />
        </mxCell>
        <mxCell id="t5h9_pTiGF1YicIOAXqB-122" style="edgeStyle=orthogonalEdgeStyle;rounded=0;orthogonalLoop=1;jettySize=auto;html=1;" edge="1" parent="WIyWlLk6GJQsqaUBKTNV-1" source="t5h9_pTiGF1YicIOAXqB-119" target="t5h9_pTiGF1YicIOAXqB-120">
          <mxGeometry relative="1" as="geometry" />
        </mxCell>
        <mxCell id="t5h9_pTiGF1YicIOAXqB-119" value="Login" style="ellipse;whiteSpace=wrap;html=1;" vertex="1" parent="WIyWlLk6GJQsqaUBKTNV-1">
          <mxGeometry x="240" y="162.5" width="80" height="60" as="geometry" />
        </mxCell>
        <mxCell id="t5h9_pTiGF1YicIOAXqB-121" style="edgeStyle=orthogonalEdgeStyle;rounded=0;orthogonalLoop=1;jettySize=auto;html=1;entryX=0.168;entryY=0.967;entryDx=0;entryDy=0;entryPerimeter=0;" edge="1" parent="WIyWlLk6GJQsqaUBKTNV-1" source="t5h9_pTiGF1YicIOAXqB-120" target="t5h9_pTiGF1YicIOAXqB-112">
          <mxGeometry relative="1" as="geometry">
            <mxPoint x="250" y="470" as="targetPoint" />
            <Array as="points">
              <mxPoint x="40" y="193" />
              <mxPoint x="40" y="490" />
              <mxPoint x="245" y="490" />
            </Array>
          </mxGeometry>
        </mxCell>
        <mxCell id="t5h9_pTiGF1YicIOAXqB-120" value="Query Database" style="rounded=0;whiteSpace=wrap;html=1;" vertex="1" parent="WIyWlLk6GJQsqaUBKTNV-1">
          <mxGeometry x="57" y="170" width="86" height="45" as="geometry" />
        </mxCell>
        <mxCell id="t5h9_pTiGF1YicIOAXqB-123" value="Change Employee Information" style="shape=table;startSize=30;container=1;collapsible=0;childLayout=tableLayout;fillColor=#d5e8d4;strokeColor=#82b366;" vertex="1" parent="WIyWlLk6GJQsqaUBKTNV-1">
          <mxGeometry x="760" y="20" width="640" height="520" as="geometry" />
        </mxCell>
        <mxCell id="t5h9_pTiGF1YicIOAXqB-124" value="" style="shape=tableRow;horizontal=0;startSize=140;swimlaneHead=0;swimlaneBody=0;strokeColor=#d6b656;top=0;left=0;bottom=0;right=0;collapsible=0;dropTarget=0;fillColor=#fff2cc;points=[[0,0.5],[1,0.5]];portConstraint=eastwest;" vertex="1" parent="t5h9_pTiGF1YicIOAXqB-123">
          <mxGeometry y="30" width="640" height="65" as="geometry" />
        </mxCell>
        <mxCell id="t5h9_pTiGF1YicIOAXqB-125" value="Employee" style="shape=partialRectangle;html=1;whiteSpace=wrap;connectable=0;strokeColor=#d6b656;overflow=hidden;fillColor=#fff2cc;top=0;left=0;bottom=0;right=0;pointerEvents=1;" vertex="1" parent="t5h9_pTiGF1YicIOAXqB-124">
          <mxGeometry x="140" width="250" height="65" as="geometry">
            <mxRectangle width="250" height="65" as="alternateBounds" />
          </mxGeometry>
        </mxCell>
        <mxCell id="t5h9_pTiGF1YicIOAXqB-126" value="Admin" style="shape=partialRectangle;html=1;whiteSpace=wrap;connectable=0;strokeColor=#d6b656;overflow=hidden;fillColor=#fff2cc;top=0;left=0;bottom=0;right=0;pointerEvents=1;" vertex="1" parent="t5h9_pTiGF1YicIOAXqB-124">
          <mxGeometry x="390" width="250" height="65" as="geometry">
            <mxRectangle width="250" height="65" as="alternateBounds" />
          </mxGeometry>
        </mxCell>
        <mxCell id="t5h9_pTiGF1YicIOAXqB-127" value="" style="shape=tableRow;horizontal=0;startSize=140;swimlaneHead=0;swimlaneBody=0;strokeColor=inherit;top=0;left=0;bottom=0;right=0;collapsible=0;dropTarget=0;fillColor=none;points=[[0,0.5],[1,0.5]];portConstraint=eastwest;" vertex="1" parent="t5h9_pTiGF1YicIOAXqB-123">
          <mxGeometry y="95" width="640" height="425" as="geometry" />
        </mxCell>
        <mxCell id="t5h9_pTiGF1YicIOAXqB-128" value="" style="shape=partialRectangle;html=1;whiteSpace=wrap;connectable=0;strokeColor=inherit;overflow=hidden;fillColor=none;top=0;left=0;bottom=0;right=0;pointerEvents=1;" vertex="1" parent="t5h9_pTiGF1YicIOAXqB-127">
          <mxGeometry x="140" width="250" height="425" as="geometry">
            <mxRectangle width="250" height="425" as="alternateBounds" />
          </mxGeometry>
        </mxCell>
        <mxCell id="t5h9_pTiGF1YicIOAXqB-129" value="" style="shape=partialRectangle;html=1;whiteSpace=wrap;connectable=0;strokeColor=inherit;overflow=hidden;fillColor=none;top=0;left=0;bottom=0;right=0;pointerEvents=1;" vertex="1" parent="t5h9_pTiGF1YicIOAXqB-127">
          <mxGeometry x="390" width="250" height="425" as="geometry">
            <mxRectangle width="250" height="425" as="alternateBounds" />
          </mxGeometry>
        </mxCell>
        <mxCell id="t5h9_pTiGF1YicIOAXqB-130" style="edgeStyle=orthogonalEdgeStyle;rounded=0;orthogonalLoop=1;jettySize=auto;html=1;exitX=1;exitY=0.5;exitDx=0;exitDy=0;entryX=0;entryY=0.5;entryDx=0;entryDy=0;" edge="1" parent="WIyWlLk6GJQsqaUBKTNV-1" source="t5h9_pTiGF1YicIOAXqB-131" target="t5h9_pTiGF1YicIOAXqB-133">
          <mxGeometry relative="1" as="geometry">
            <mxPoint x="1050" y="145" as="targetPoint" />
          </mxGeometry>
        </mxCell>
        <mxCell id="t5h9_pTiGF1YicIOAXqB-131" value="Change Information Reguest" style="ellipse;whiteSpace=wrap;html=1;" vertex="1" parent="WIyWlLk6GJQsqaUBKTNV-1">
          <mxGeometry x="920" y="130" width="130" height="70" as="geometry" />
        </mxCell>
        <mxCell id="t5h9_pTiGF1YicIOAXqB-132" style="edgeStyle=orthogonalEdgeStyle;rounded=0;orthogonalLoop=1;jettySize=auto;html=1;entryX=0.5;entryY=0;entryDx=0;entryDy=0;" edge="1" parent="WIyWlLk6GJQsqaUBKTNV-1" source="t5h9_pTiGF1YicIOAXqB-133" target="t5h9_pTiGF1YicIOAXqB-138">
          <mxGeometry relative="1" as="geometry" />
        </mxCell>
        <mxCell id="t5h9_pTiGF1YicIOAXqB-133" value="Get Request" style="rounded=0;whiteSpace=wrap;html=1;" vertex="1" parent="WIyWlLk6GJQsqaUBKTNV-1">
          <mxGeometry x="1242" y="142.5" width="86" height="45" as="geometry" />
        </mxCell>
        <mxCell id="t5h9_pTiGF1YicIOAXqB-134" value="System" style="text;html=1;align=center;verticalAlign=middle;whiteSpace=wrap;rounded=0;" vertex="1" parent="WIyWlLk6GJQsqaUBKTNV-1">
          <mxGeometry x="800" y="70" width="60" height="30" as="geometry" />
        </mxCell>
        <mxCell id="t5h9_pTiGF1YicIOAXqB-135" style="edgeStyle=orthogonalEdgeStyle;rounded=0;orthogonalLoop=1;jettySize=auto;html=1;entryX=0.5;entryY=0;entryDx=0;entryDy=0;" edge="1" parent="WIyWlLk6GJQsqaUBKTNV-1" source="t5h9_pTiGF1YicIOAXqB-138" target="t5h9_pTiGF1YicIOAXqB-140">
          <mxGeometry relative="1" as="geometry">
            <Array as="points">
              <mxPoint x="1285" y="295" />
              <mxPoint x="830" y="295" />
            </Array>
          </mxGeometry>
        </mxCell>
        <mxCell id="t5h9_pTiGF1YicIOAXqB-136" value="Yes" style="edgeLabel;html=1;align=center;verticalAlign=middle;resizable=0;points=[];" vertex="1" connectable="0" parent="t5h9_pTiGF1YicIOAXqB-135">
          <mxGeometry x="0.0767" y="-1" relative="1" as="geometry">
            <mxPoint as="offset" />
          </mxGeometry>
        </mxCell>
        <mxCell id="t5h9_pTiGF1YicIOAXqB-137" value="No" style="edgeStyle=orthogonalEdgeStyle;rounded=0;orthogonalLoop=1;jettySize=auto;html=1;entryX=1;entryY=0.5;entryDx=0;entryDy=0;" edge="1" parent="WIyWlLk6GJQsqaUBKTNV-1" source="t5h9_pTiGF1YicIOAXqB-138" target="t5h9_pTiGF1YicIOAXqB-140">
          <mxGeometry relative="1" as="geometry" />
        </mxCell>
        <mxCell id="t5h9_pTiGF1YicIOAXqB-138" value="Confirm" style="rhombus;whiteSpace=wrap;html=1;" vertex="1" parent="WIyWlLk6GJQsqaUBKTNV-1">
          <mxGeometry x="1240" y="300" width="90" height="80" as="geometry" />
        </mxCell>
        <mxCell id="t5h9_pTiGF1YicIOAXqB-148" style="edgeStyle=orthogonalEdgeStyle;rounded=0;orthogonalLoop=1;jettySize=auto;html=1;entryX=0.5;entryY=0;entryDx=0;entryDy=0;" edge="1" parent="WIyWlLk6GJQsqaUBKTNV-1" source="t5h9_pTiGF1YicIOAXqB-140" target="t5h9_pTiGF1YicIOAXqB-143">
          <mxGeometry relative="1" as="geometry" />
        </mxCell>
        <mxCell id="t5h9_pTiGF1YicIOAXqB-140" value="Save to database" style="rounded=0;whiteSpace=wrap;html=1;" vertex="1" parent="WIyWlLk6GJQsqaUBKTNV-1">
          <mxGeometry x="780" y="315" width="100" height="50" as="geometry" />
        </mxCell>
        <mxCell id="t5h9_pTiGF1YicIOAXqB-143" value="End" style="ellipse;whiteSpace=wrap;html=1;" vertex="1" parent="WIyWlLk6GJQsqaUBKTNV-1">
          <mxGeometry x="780" y="420" width="90" height="50" as="geometry" />
        </mxCell>
        <mxCell id="t5h9_pTiGF1YicIOAXqB-149" value="Shift Management" style="shape=table;startSize=30;container=1;collapsible=0;childLayout=tableLayout;" vertex="1" parent="WIyWlLk6GJQsqaUBKTNV-1">
          <mxGeometry x="20" y="640" width="640" height="520" as="geometry" />
        </mxCell>
        <mxCell id="t5h9_pTiGF1YicIOAXqB-150" value="" style="shape=tableRow;horizontal=0;startSize=140;swimlaneHead=0;swimlaneBody=0;strokeColor=inherit;top=0;left=0;bottom=0;right=0;collapsible=0;dropTarget=0;fillColor=none;points=[[0,0.5],[1,0.5]];portConstraint=eastwest;" vertex="1" parent="t5h9_pTiGF1YicIOAXqB-149">
          <mxGeometry y="30" width="640" height="65" as="geometry" />
        </mxCell>
        <mxCell id="t5h9_pTiGF1YicIOAXqB-151" value="Employee" style="shape=partialRectangle;html=1;whiteSpace=wrap;connectable=0;strokeColor=inherit;overflow=hidden;fillColor=none;top=0;left=0;bottom=0;right=0;pointerEvents=1;" vertex="1" parent="t5h9_pTiGF1YicIOAXqB-150">
          <mxGeometry x="140" width="250" height="65" as="geometry">
            <mxRectangle width="250" height="65" as="alternateBounds" />
          </mxGeometry>
        </mxCell>
        <mxCell id="t5h9_pTiGF1YicIOAXqB-152" value="Human Resources" style="shape=partialRectangle;html=1;whiteSpace=wrap;connectable=0;strokeColor=inherit;overflow=hidden;fillColor=none;top=0;left=0;bottom=0;right=0;pointerEvents=1;" vertex="1" parent="t5h9_pTiGF1YicIOAXqB-150">
          <mxGeometry x="390" width="250" height="65" as="geometry">
            <mxRectangle width="250" height="65" as="alternateBounds" />
          </mxGeometry>
        </mxCell>
        <mxCell id="t5h9_pTiGF1YicIOAXqB-153" value="" style="shape=tableRow;horizontal=0;startSize=140;swimlaneHead=0;swimlaneBody=0;strokeColor=inherit;top=0;left=0;bottom=0;right=0;collapsible=0;dropTarget=0;fillColor=none;points=[[0,0.5],[1,0.5]];portConstraint=eastwest;" vertex="1" parent="t5h9_pTiGF1YicIOAXqB-149">
          <mxGeometry y="95" width="640" height="425" as="geometry" />
        </mxCell>
        <mxCell id="t5h9_pTiGF1YicIOAXqB-154" value="" style="shape=partialRectangle;html=1;whiteSpace=wrap;connectable=0;strokeColor=inherit;overflow=hidden;fillColor=none;top=0;left=0;bottom=0;right=0;pointerEvents=1;" vertex="1" parent="t5h9_pTiGF1YicIOAXqB-153">
          <mxGeometry x="140" width="250" height="425" as="geometry">
            <mxRectangle width="250" height="425" as="alternateBounds" />
          </mxGeometry>
        </mxCell>
        <mxCell id="t5h9_pTiGF1YicIOAXqB-155" value="" style="shape=partialRectangle;html=1;whiteSpace=wrap;connectable=0;strokeColor=inherit;overflow=hidden;fillColor=none;top=0;left=0;bottom=0;right=0;pointerEvents=1;" vertex="1" parent="t5h9_pTiGF1YicIOAXqB-153">
          <mxGeometry x="390" width="250" height="425" as="geometry">
            <mxRectangle width="250" height="425" as="alternateBounds" />
          </mxGeometry>
        </mxCell>
        <mxCell id="t5h9_pTiGF1YicIOAXqB-156" style="edgeStyle=orthogonalEdgeStyle;rounded=0;orthogonalLoop=1;jettySize=auto;html=1;exitX=1;exitY=0.5;exitDx=0;exitDy=0;entryX=0;entryY=0.5;entryDx=0;entryDy=0;" edge="1" parent="WIyWlLk6GJQsqaUBKTNV-1" source="t5h9_pTiGF1YicIOAXqB-157" target="t5h9_pTiGF1YicIOAXqB-159">
          <mxGeometry relative="1" as="geometry">
            <mxPoint x="310" y="765" as="targetPoint" />
          </mxGeometry>
        </mxCell>
        <mxCell id="t5h9_pTiGF1YicIOAXqB-157" value="Forgot Reguest" style="ellipse;whiteSpace=wrap;html=1;" vertex="1" parent="WIyWlLk6GJQsqaUBKTNV-1">
          <mxGeometry x="245" y="831.25" width="70" height="50" as="geometry" />
        </mxCell>
        <mxCell id="t5h9_pTiGF1YicIOAXqB-158" style="edgeStyle=orthogonalEdgeStyle;rounded=0;orthogonalLoop=1;jettySize=auto;html=1;entryX=0.5;entryY=0;entryDx=0;entryDy=0;" edge="1" parent="WIyWlLk6GJQsqaUBKTNV-1" source="t5h9_pTiGF1YicIOAXqB-159" target="t5h9_pTiGF1YicIOAXqB-164">
          <mxGeometry relative="1" as="geometry" />
        </mxCell>
        <mxCell id="t5h9_pTiGF1YicIOAXqB-159" value="Get Request" style="rounded=0;whiteSpace=wrap;html=1;" vertex="1" parent="WIyWlLk6GJQsqaUBKTNV-1">
          <mxGeometry x="504" y="833.75" width="86" height="45" as="geometry" />
        </mxCell>
        <mxCell id="t5h9_pTiGF1YicIOAXqB-160" value="System" style="text;html=1;align=center;verticalAlign=middle;whiteSpace=wrap;rounded=0;" vertex="1" parent="WIyWlLk6GJQsqaUBKTNV-1">
          <mxGeometry x="60" y="690" width="60" height="30" as="geometry" />
        </mxCell>
        <mxCell id="t5h9_pTiGF1YicIOAXqB-161" style="edgeStyle=orthogonalEdgeStyle;rounded=0;orthogonalLoop=1;jettySize=auto;html=1;entryX=0.5;entryY=0;entryDx=0;entryDy=0;" edge="1" parent="WIyWlLk6GJQsqaUBKTNV-1" source="t5h9_pTiGF1YicIOAXqB-164" target="t5h9_pTiGF1YicIOAXqB-166">
          <mxGeometry relative="1" as="geometry">
            <Array as="points">
              <mxPoint x="545" y="915" />
              <mxPoint x="90" y="915" />
            </Array>
          </mxGeometry>
        </mxCell>
        <mxCell id="t5h9_pTiGF1YicIOAXqB-162" value="Yes" style="edgeLabel;html=1;align=center;verticalAlign=middle;resizable=0;points=[];" vertex="1" connectable="0" parent="t5h9_pTiGF1YicIOAXqB-161">
          <mxGeometry x="0.0767" y="-1" relative="1" as="geometry">
            <mxPoint as="offset" />
          </mxGeometry>
        </mxCell>
        <mxCell id="t5h9_pTiGF1YicIOAXqB-163" value="No" style="edgeStyle=orthogonalEdgeStyle;rounded=0;orthogonalLoop=1;jettySize=auto;html=1;entryX=1;entryY=0.5;entryDx=0;entryDy=0;" edge="1" parent="WIyWlLk6GJQsqaUBKTNV-1" source="t5h9_pTiGF1YicIOAXqB-164" target="t5h9_pTiGF1YicIOAXqB-166">
          <mxGeometry relative="1" as="geometry" />
        </mxCell>
        <mxCell id="t5h9_pTiGF1YicIOAXqB-164" value="Confirm" style="rhombus;whiteSpace=wrap;html=1;" vertex="1" parent="WIyWlLk6GJQsqaUBKTNV-1">
          <mxGeometry x="500" y="920" width="90" height="80" as="geometry" />
        </mxCell>
        <mxCell id="t5h9_pTiGF1YicIOAXqB-165" style="edgeStyle=orthogonalEdgeStyle;rounded=0;orthogonalLoop=1;jettySize=auto;html=1;" edge="1" parent="WIyWlLk6GJQsqaUBKTNV-1" source="t5h9_pTiGF1YicIOAXqB-166" target="t5h9_pTiGF1YicIOAXqB-168">
          <mxGeometry relative="1" as="geometry">
            <Array as="points">
              <mxPoint x="90" y="1030" />
            </Array>
          </mxGeometry>
        </mxCell>
        <mxCell id="t5h9_pTiGF1YicIOAXqB-166" value="Save to database" style="rounded=0;whiteSpace=wrap;html=1;" vertex="1" parent="WIyWlLk6GJQsqaUBKTNV-1">
          <mxGeometry x="40" y="935" width="100" height="50" as="geometry" />
        </mxCell>
        <mxCell id="t5h9_pTiGF1YicIOAXqB-167" style="edgeStyle=orthogonalEdgeStyle;rounded=0;orthogonalLoop=1;jettySize=auto;html=1;" edge="1" parent="WIyWlLk6GJQsqaUBKTNV-1" source="t5h9_pTiGF1YicIOAXqB-168" target="t5h9_pTiGF1YicIOAXqB-169">
          <mxGeometry relative="1" as="geometry" />
        </mxCell>
        <mxCell id="t5h9_pTiGF1YicIOAXqB-168" value="Notificate" style="rounded=0;whiteSpace=wrap;html=1;" vertex="1" parent="WIyWlLk6GJQsqaUBKTNV-1">
          <mxGeometry x="215" y="1000" width="120" height="60" as="geometry" />
        </mxCell>
        <mxCell id="t5h9_pTiGF1YicIOAXqB-169" value="End" style="ellipse;whiteSpace=wrap;html=1;" vertex="1" parent="WIyWlLk6GJQsqaUBKTNV-1">
          <mxGeometry x="240" y="1090" width="70" height="30" as="geometry" />
        </mxCell>
        <mxCell id="t5h9_pTiGF1YicIOAXqB-170" style="edgeStyle=orthogonalEdgeStyle;rounded=0;orthogonalLoop=1;jettySize=auto;html=1;" edge="1" parent="WIyWlLk6GJQsqaUBKTNV-1" source="t5h9_pTiGF1YicIOAXqB-171" target="t5h9_pTiGF1YicIOAXqB-173">
          <mxGeometry relative="1" as="geometry" />
        </mxCell>
        <mxCell id="t5h9_pTiGF1YicIOAXqB-171" value="Take Attendance" style="ellipse;whiteSpace=wrap;html=1;" vertex="1" parent="WIyWlLk6GJQsqaUBKTNV-1">
          <mxGeometry x="220" y="759.38" width="100" height="66.25" as="geometry" />
        </mxCell>
        <mxCell id="t5h9_pTiGF1YicIOAXqB-174" style="edgeStyle=orthogonalEdgeStyle;rounded=0;orthogonalLoop=1;jettySize=auto;html=1;" edge="1" parent="WIyWlLk6GJQsqaUBKTNV-1" source="t5h9_pTiGF1YicIOAXqB-173" target="t5h9_pTiGF1YicIOAXqB-166">
          <mxGeometry relative="1" as="geometry">
            <Array as="points">
              <mxPoint x="50" y="880" />
              <mxPoint x="50" y="880" />
            </Array>
          </mxGeometry>
        </mxCell>
        <mxCell id="t5h9_pTiGF1YicIOAXqB-173" value="Query Database" style="rounded=0;whiteSpace=wrap;html=1;" vertex="1" parent="WIyWlLk6GJQsqaUBKTNV-1">
          <mxGeometry x="47" y="770" width="86" height="45" as="geometry" />
        </mxCell>
      </root>
    </mxGraphModel>
  </diagram>
</mxfile>
